<?xml version="1.0" encoding="UTF-8"?>
<!DOCTYPE svg PUBLIC "-//W3C//DTD SVG 1.1//EN" "http://www.w3.org/Graphics/SVG/1.1/DTD/svg11.dtd">
<!-- Creator: CorelDRAW X7 -->
<svg xmlns="http://www.w3.org/2000/svg" xml:space="preserve" width="330mm" height="210mm" version="1.1" style="shape-rendering:geometricPrecision; text-rendering:geometricPrecision; image-rendering:optimizeQuality; fill-rule:evenodd; clip-rule:evenodd"
viewBox="0 0 33000 21000"
 xmlns:xlink="http://www.w3.org/1999/xlink">
 <defs>
  <style type="text/css">
   <![CDATA[
    .str1 {stroke:#757475;stroke-width:20}
    .str0 {stroke:#5F5D5D;stroke-width:20}
    .fil2 {fill:#FEFEFE}
    .fil0 {fill:red}
    .fil1 {fill:red}
   ]]>
  </style>
    <clipPath id="id0">
     <path d="M4372 7375l23603 0 0 8703 -23603 0 0 -8703z"/>
    </clipPath>
 </defs>
 <g id="Layer_x0020_1">
  <metadata id="CorelCorpID_0Corel-Layer"/>
  <g id="_2419924733776">
   <g style="clip-path:url(#id0)">
    <image x="4372" y="7375" width="23603" height="8703" xlink:href="IDflix svg_Images\IDflix svg_ImgID1.png"/>
   </g>
  </g>
  <g id="_2420080785088">
   <path class="fil0 str0" d="M26045 10892c-553,-276 -1124,-514 -1708,-716 -152,-478 -770,-1256 -377,-2724 60,-224 240,-145 406,-100l793 212c167,68 170,0 70,545 -238,1266 69,1819 221,1860 259,70 833,-743 995,-1349 25,-94 108,-489 120,-532 52,-195 245,-81 332,-58l563 151c333,82 283,238 210,512 -466,1738 -1517,1797 -1624,2193 0,2 0,4 -1,6z"/>
   <path class="fil0 str0" d="M21939 9471c-391,-73 -785,-134 -1181,-183 405,-2633 713,-2485 825,-2470l794 103c96,13 283,14 265,154 -9,69 -490,1102 -703,2396z"/>
   <path class="fil0 str0" d="M17701 9106c-330,2 -660,9 -987,23 127,-1140 318,-2353 441,-2353l1086 0c48,0 130,14 130,137 0,113 -448,972 -670,2193z"/>
   <path class="fil0 str0" d="M15720 9185c-967,71 -1913,186 -2819,328 29,-2897 355,-2786 465,-2786l2771 0c81,0 325,-20 325,116 0,54 -433,1002 -522,1002 -115,0 -318,-318 -982,-318 -467,0 -962,278 -962,928 0,407 20,535 217,535 440,0 481,-311 1375,-311 75,0 231,0 231,115 0,13 -42,187 -99,391z"/>
   <path class="fil0 str0" d="M12064 9601c-372,66 -738,136 -1093,210 -381,-1313 -1227,-1786 -1629,-1720 -489,79 -440,995 -368,1435l117 718c-375,95 -732,191 -1070,286 -483,-3111 -121,-3049 -6,-3068l1186 -193c781,-127 2238,410 2863,2332z"/>
   <path class="fil1 str0" d="M6909 10932c-441,139 -829,269 -1151,382 -794,-3469 -395,-3428 -273,-3456l780 -180c94,-22 269,-85 301,52 17,73 -88,1368 234,2762 35,152 72,299 109,440z"/>
   <path class="fil2 str1" d="M26070 10923l-35 -1 -1637 -601c2,36 0,71 -9,103 -103,383 -1719,761 -2222,2636 -38,144 166,160 267,188l534 143c324,87 288,77 441,-292 539,-1432 1327,-1693 1457,-1658 135,36 502,684 282,1939l-61 315c-49,297 28,271 280,338l715 192c238,64 274,104 340,-141 454,-1693 -362,-2775 -352,-3161z"/>
   <path class="fil2 str1" d="M21936 9572l-1158 -284 -8 0c-42,274 -85,578 -128,915 -358,2757 -119,2646 65,2670l897 116 147 20c66,8 111,6 121,-67 13,-103 -197,-1364 47,-3247 5,-41 11,-82 17,-123z"/>
   <path class="fil2 str1" d="M17713 9187l-969 -38 -5 0c-76,685 -128,1338 -128,1680 34,1387 -75,1626 287,1612l2781 0c82,0 294,34 294,-102 0,-34 -267,-1353 -397,-1353 -170,0 -553,581 -1182,581 -375,0 -785,-226 -785,-1169 0,-429 41,-836 104,-1211z"/>
   <path class="fil2 str1" d="M15732 9260l-2801 224c-2,151 -3,310 -3,478 0,2541 204,2412 373,2412l800 0c61,0 230,21 223,-61 7,-74 -264,-1023 -264,-1612 0,-556 298,-901 894,-901 264,0 447,95 515,95 65,0 177,-336 263,-635z"/>
   <path class="fil2 str1" d="M12062 9625l-1053 354c31,126 59,259 82,399 204,1256 -442,1726 -819,1788 -391,63 -881,-43 -1136,-1613l-22 -136 -1094 135c17,109 35,222 54,339 426,2616 613,2449 788,2421l1806 -294c1410,-230 1796,-1331 1600,-2538 -51,-311 -121,-596 -206,-855z"/>
   <path class="fil2 str1" d="M6924 11023l-1144 427c625,2705 810,2518 990,2476l882 -203 144 -34c65,-15 107,-32 90,-104 -21,-92 -546,-1012 -962,-2562z"/>
  </g>
 </g>
</svg>
